<svg width="9" height="9" viewBox="0 0 9 9" fill="none" xmlns="http://www.w3.org/2000/svg">
<path fill-rule="evenodd" clip-rule="evenodd" d="M8.7816 1.03157C9.0062 0.80702 9.0062 0.44295 8.7816 0.2184C8.5571 -0.00614971 8.193 -0.00614971 7.9685 0.2184L4.50005 3.68682L1.03164 0.2184C0.807081 -0.00614971 0.443011 -0.00614971 0.218461 0.2184C-0.00608867 0.44295 -0.00608867 0.80702 0.218461 1.03157L3.68688 4.49999L0.218461 7.9684C-0.00608867 8.193 -0.00608867 8.557 0.218461 8.7816C0.443011 9.0061 0.807081 9.0061 1.03164 8.7816L4.50005 5.31316L7.9685 8.7816C8.193 9.0061 8.5571 9.0061 8.7816 8.7816C9.0062 8.557 9.0062 8.193 8.7816 7.9684L5.31322 4.49999L8.7816 1.03157Z" fill="#CA3333"/>
</svg>
