<svg width="12" height="12" viewBox="0 0 12 12" fill="none" xmlns="http://www.w3.org/2000/svg">
<path fill-rule="evenodd" clip-rule="evenodd" d="M9.8536 0.146449C9.6583 -0.0488165 9.3417 -0.0488165 9.1465 0.146449L1.71455 7.57836C1.62459 7.66832 1.55263 7.77461 1.50251 7.89155L0.040443 11.303C-0.040097 11.491 0.00189295 11.709 0.146463 11.8536C0.291033 11.9981 0.509053 12.0401 0.696973 11.9596L4.10847 10.4975C4.2254 10.4474 4.3317 10.3754 4.42166 10.2855L11.8536 2.85355C12.0488 2.65829 12.0488 2.34171 11.8536 2.14645L9.8536 0.146449ZM2.42166 8.28547L9.5 1.20711L10.7929 2.5L3.71455 9.5784L2.21924 10.2192L1.78081 9.7808L2.42166 8.28547Z" fill="white"/>
</svg>
