<svg width="11" height="11" viewBox="0 0 11 11" fill="none" xmlns="http://www.w3.org/2000/svg">
<path fill-rule="evenodd" clip-rule="evenodd" d="M0 0.5C0 0.22386 0.22386 0 0.5 0H3.5C3.77614 0 4 0.22386 4 0.5C4 0.77614 3.77614 1 3.5 1H1V3.5C1 3.77614 0.77614 4 0.5 4C0.22386 4 0 3.77614 0 3.5V0.5ZM7 0.5C7 0.22386 7.22386 0 7.5 0H10.5C10.7761 0 11 0.22386 11 0.5V3.5C11 3.77614 10.7761 4 10.5 4C10.2239 4 10 3.77614 10 3.5V1H7.5C7.22386 1 7 0.77614 7 0.5ZM0.5 7C0.77614 7 1 7.22386 1 7.5V10H3.5C3.77614 10 4 10.2239 4 10.5C4 10.7761 3.77614 11 3.5 11H0.5C0.22386 11 0 10.7761 0 10.5V7.5C0 7.22386 0.22386 7 0.5 7ZM10.5 7C10.7761 7 11 7.22386 11 7.5V10.5C11 10.7761 10.7761 11 10.5 11H7.5C7.22386 11 7 10.7761 7 10.5C7 10.2239 7.22386 10 7.5 10H10V7.5C10 7.22386 10.2239 7 10.5 7Z" fill="white"/>
</svg>
